<svg xmlns="http://www.w3.org/2000/svg" viewBox="0 0 32 32" width="22" height="22" style="border-color: rgba(0,0,0,0);border-width: bpx;border-style: undefined" filter="none">
    
    <g>
    <path d="M16.889 3.556h-9.908c-0.91 0-1.648 0.738-1.648 1.648v23.371c0 0.91 0.738 1.648 1.648 1.648h16.26c0.91 0 1.648-0.738 1.648-1.648v-17.019c0-0.491-0.398-0.889-0.889-0.889s-0.889 0.398-0.889 0.889v16.889h-16v-23.111h9.778c0.491 0 0.889-0.398 0.889-0.889s-0.398-0.889-0.889-0.889zM15.111 21.333h-5.333c-0.491 0-0.889 0.398-0.889 0.889s0.398 0.889 0.889 0.889h5.333c0.491 0 0.889-0.398 0.889-0.889s-0.398-0.889-0.889-0.889zM15.111 24.889h-5.333c-0.491 0-0.889 0.398-0.889 0.889s0.398 0.889 0.889 0.889h5.333c0.491 0 0.889-0.398 0.889-0.889s-0.398-0.889-0.889-0.889zM23.262 1.778c-0.226 0-0.453 0.087-0.628 0.26l-6.736 6.738c-0.114 0.114-0.198 0.257-0.242 0.416l-0.002 0.007-0.919 3.429c-0.156 0.578 0.292 1.113 0.85 1.113 0.076 0 0.155-0.011 0.233-0.032l3.428-0.919c0.16-0.043 0.306-0.126 0.423-0.244l6.74-6.736c0.345-0.348 0.345-0.908 0-1.255l-2.519-2.517c-0.174-0.172-0.4-0.26-0.628-0.26zM23.262 3.925l1.257 1.257-5.948 5.948-1.716 0.46 0.459-1.717 5.948-5.948z" fill="rgba(16.065,16.065,16.065,1)"></path>
    </g>
  </svg>